<svg width="28" height="28" viewBox="0 0 28 28" fill="none" xmlns="http://www.w3.org/2000/svg">
<path d="M14 24.9375L14.6038 26.103C14.4172 26.1997 14.2101 26.2501 14 26.2501C13.7899 26.2501 13.5828 26.1997 13.3963 26.103L13.3822 26.096L13.3507 26.0785C13.1674 25.9839 12.9865 25.8847 12.8082 25.781C10.675 24.5676 8.66269 23.153 6.79875 21.5565C3.57875 18.7792 0 14.6125 0 9.625C0 4.963 3.6505 1.75 7.4375 1.75C10.1447 1.75 12.5177 3.1535 14 5.285C15.4823 3.1535 17.8552 1.75 20.5625 1.75C24.3495 1.75 28 4.963 28 9.625C28 14.6125 24.4212 18.7792 21.2013 21.5565C19.1794 23.2862 16.9836 24.8016 14.6493 26.0785L14.6177 26.096L14.6073 26.1012H14.6038L14 24.9375ZM7.4375 4.375C5.0995 4.375 2.625 6.412 2.625 9.625C2.625 13.3875 5.39 16.877 8.51375 19.5685C10.2182 21.0261 12.0549 22.3215 14 23.4377C15.9451 22.3215 17.7818 21.0261 19.4862 19.5685C22.61 16.877 25.375 13.3875 25.375 9.625C25.375 6.412 22.9005 4.375 20.5625 4.375C18.1597 4.375 15.9967 6.1005 15.2617 8.673C15.1844 8.94806 15.0192 9.19029 14.7914 9.36281C14.5636 9.53534 14.2857 9.62871 14 9.62871C13.7143 9.62871 13.4364 9.53534 13.2086 9.36281C12.9808 9.19029 12.8156 8.94806 12.7382 8.673C12.0033 6.1005 9.84025 4.375 7.4375 4.375Z" fill="#366159"/>
</svg>
