<svg width="30" height="30" viewBox="0 0 30 30" fill="none" xmlns="http://www.w3.org/2000/svg">
<circle cx="15" cy="15" r="15" fill="white"/>
<path d="M15 22.0312L15.3881 22.7805C15.2682 22.8426 15.1351 22.8751 15 22.8751C14.8649 22.8751 14.7318 22.8426 14.6119 22.7805L14.6029 22.776L14.5826 22.7648C14.4648 22.7039 14.3485 22.6402 14.2339 22.5735C12.8625 21.7935 11.5689 20.8841 10.3706 19.8577C8.30062 18.0724 6 15.3938 6 12.1875C6 9.1905 8.34675 7.125 10.7812 7.125C12.5216 7.125 14.0471 8.02725 15 9.3975C15.9529 8.02725 17.4784 7.125 19.2188 7.125C21.6532 7.125 24 9.1905 24 12.1875C24 15.3938 21.6994 18.0724 19.6294 19.8577C18.3296 20.9697 16.9181 21.9439 15.4174 22.7648L15.3971 22.776L15.3904 22.7794H15.3881L15 22.0312ZM10.7812 8.8125C9.27825 8.8125 7.6875 10.122 7.6875 12.1875C7.6875 14.6063 9.465 16.8495 11.4731 18.5798C12.5688 19.5168 13.7496 20.3495 15 21.0671C16.2504 20.3495 17.4312 19.5168 18.5269 18.5798C20.535 16.8495 22.3125 14.6063 22.3125 12.1875C22.3125 10.122 20.7218 8.8125 19.2188 8.8125C17.6741 8.8125 16.2836 9.92175 15.8111 11.5755C15.7614 11.7523 15.6552 11.908 15.5088 12.019C15.3623 12.1299 15.1837 12.1899 15 12.1899C14.8163 12.1899 14.6377 12.1299 14.4912 12.019C14.3448 11.908 14.2386 11.7523 14.1889 11.5755C13.7164 9.92175 12.3259 8.8125 10.7812 8.8125Z" fill="#366159"/>
</svg>
