<svg width="30" height="30" viewBox="0 0 30 30" fill="none" xmlns="http://www.w3.org/2000/svg">
<circle cx="15" cy="15" r="15" fill="white"/>
<path d="M15 23.0312L15.3881 23.7805C15.2682 23.8426 15.1351 23.8751 15 23.8751C14.8649 23.8751 14.7318 23.8426 14.6119 23.7805L14.6029 23.776L14.5826 23.7648C14.4648 23.7039 14.3485 23.6402 14.2339 23.5735C12.8625 22.7935 11.5689 21.8841 10.3706 20.8577C8.30062 19.0724 6 16.3937 6 13.1875C6 10.1905 8.34675 8.125 10.7812 8.125C12.5216 8.125 14.0471 9.02725 15 10.3975C15.9529 9.02725 17.4784 8.125 19.2188 8.125C21.6532 8.125 24 10.1905 24 13.1875C24 16.3937 21.6994 19.0724 19.6294 20.8577C18.3296 21.9697 16.9181 22.9439 15.4174 23.7648L15.3971 23.776L15.3904 23.7794H15.3881L15 23.0312ZM10.7812 9.8125C9.27825 9.8125 9 11.1244 9 13.1899C7.875 15.625 9.24187 7.14475 11.25 8.875C12.3457 9.81202 13.7496 11.1574 15 11.875C16.2504 11.1574 17.6543 9.81202 18.75 8.875C20.7581 7.14475 23.25 13.019 22.3125 13.1875C22.3125 11.122 20.7218 9.8125 19.2188 9.8125C17.6741 9.8125 16.2836 10.9218 15.8111 12.5755C15.7614 12.7523 15.6552 12.908 15.5088 13.019C15.3623 13.1299 15.1837 13.1899 15 13.1899C14.8163 13.1899 14.6377 13.1299 14.4912 13.019C14.3448 12.908 14.2386 12.7523 14.1889 12.5755C13.7164 10.9218 12.3259 9.8125 10.7812 9.8125Z" fill="#FF0F00"/>
</svg>
