<svg width="30" height="30" viewBox="0 0 30 30" fill="none" xmlns="http://www.w3.org/2000/svg">
<circle cx="15" cy="15" r="15" fill="#366159"/>
<g clip-path="url(#clip0_470_1451)">
<path d="M15 8.24951C15.1912 8.24972 15.375 8.32292 15.514 8.45415C15.653 8.58537 15.7367 8.76473 15.7479 8.95556C15.7591 9.14639 15.697 9.3343 15.5743 9.48089C15.4516 9.62748 15.2776 9.72168 15.0877 9.74426L15 9.74951H11.25C11.0663 9.74954 10.889 9.81698 10.7517 9.93905C10.6144 10.0611 10.5267 10.2293 10.5052 10.4118L10.5 10.4995V19.4995C10.5 19.6832 10.5675 19.8605 10.6895 19.9978C10.8116 20.1351 10.9798 20.2228 11.1622 20.2443L11.25 20.2495H14.625C14.8162 20.2497 15 20.3229 15.139 20.4541C15.278 20.5854 15.3617 20.7647 15.3729 20.9556C15.3841 21.1464 15.322 21.3343 15.1993 21.4809C15.0766 21.6275 14.9026 21.7217 14.7127 21.7443L14.625 21.7495H11.25C10.6761 21.7495 10.1239 21.5303 9.7063 21.1365C9.28874 20.7428 9.03742 20.2044 9.00375 19.6315L9 19.4995V10.4995C8.99997 9.9256 9.21924 9.37338 9.61296 8.95582C10.0067 8.53826 10.5451 8.28693 11.118 8.25326L11.25 8.24951H15ZM19.2802 12.3475L21.4012 14.4693C21.5419 14.6099 21.6208 14.8006 21.6208 14.9995C21.6208 15.1984 21.5419 15.3891 21.4012 15.5298L19.2802 17.6515C19.1395 17.7921 18.9487 17.8711 18.7497 17.871C18.5508 17.871 18.36 17.7919 18.2194 17.6511C18.0787 17.5104 17.9998 17.3196 17.9998 17.1206C17.9999 16.9217 18.079 16.7309 18.2197 16.5903L19.0605 15.7495H15C14.8011 15.7495 14.6103 15.6705 14.4697 15.5298C14.329 15.3892 14.25 15.1984 14.25 14.9995C14.25 14.8006 14.329 14.6098 14.4697 14.4692C14.6103 14.3285 14.8011 14.2495 15 14.2495H19.0605L18.2197 13.4088C18.079 13.2681 17.9999 13.0774 17.9998 12.8784C17.9998 12.6794 18.0787 12.4886 18.2194 12.3479C18.36 12.2072 18.5508 12.1281 18.7497 12.128C18.9487 12.1279 19.1395 12.2069 19.2802 12.3475Z" fill="white"/>
</g>
<defs>
<clipPath id="clip0_470_1451">
<rect width="18" height="18" fill="white" transform="translate(5.99902 5.99951)"/>
</clipPath>
</defs>
</svg>
