<svg width="40" height="40" viewBox="0 0 40 40" fill="none" xmlns="http://www.w3.org/2000/svg">
<circle cx="20" cy="20" r="20" fill="#366159"/>
<path d="M12 26C12 24.9391 12.4214 23.9217 13.1716 23.1716C13.9217 22.4214 14.9391 22 16 22H24C25.0609 22 26.0783 22.4214 26.8284 23.1716C27.5786 23.9217 28 24.9391 28 26C28 26.5304 27.7893 27.0391 27.4142 27.4142C27.0391 27.7893 26.5304 28 26 28H14C13.4696 28 12.9609 27.7893 12.5858 27.4142C12.2107 27.0391 12 26.5304 12 26Z" stroke="#FBF6F0" stroke-width="1.5" stroke-linejoin="round"/>
<path d="M20 18C21.6569 18 23 16.6569 23 15C23 13.3431 21.6569 12 20 12C18.3431 12 17 13.3431 17 15C17 16.6569 18.3431 18 20 18Z" stroke="#FBF6F0" stroke-width="1.5"/>
</svg>
