<svg width="40" height="40" viewBox="0 0 40 40" fill="none" xmlns="http://www.w3.org/2000/svg">
<circle cx="20" cy="20" r="20" fill="white"/>
<path d="M22.6522 30.0346V13.2303L17.6898 10.196C17.5192 10.0855 17.3182 10.0152 17.1275 9.9646V27.0007L22.1898 29.8336C22.337 29.9154 22.4919 29.9826 22.6522 30.0342M10.6887 29.7329C10.9501 29.7329 11.2012 29.6527 11.5329 29.4715L15.7514 27.2017V10.1463C15.5705 10.2363 15.3798 10.337 15.1891 10.4476L10.4277 13.1699C9.82509 13.511 9.54395 13.9932 9.54395 14.6665V28.5779C9.54395 29.3215 9.97552 29.7333 10.6891 29.7333M24.0288 30.0145C24.1291 29.9845 24.2294 29.9442 24.3301 29.8739L29.5831 26.891C30.1758 26.5593 30.4574 26.0767 30.4574 25.4039V11.4723C30.4574 10.7287 30.0352 10.3272 29.3122 10.3272C29.0611 10.3272 28.8001 10.3975 28.4782 10.5783L24.0288 13.0486V30.0145Z" fill="#366159"/>
</svg>
