<svg width="30" height="30" viewBox="0 0 30 30" fill="none" xmlns="http://www.w3.org/2000/svg">
<path d="M24.5 24.5L18.75 18.75M3.75 12.5C3.75 13.6491 3.97633 14.7869 4.41605 15.8485C4.85578 16.9101 5.5003 17.8747 6.31282 18.6872C7.12533 19.4997 8.08992 20.1442 9.15152 20.5839C10.2131 21.0237 11.3509 21.25 12.5 21.25C13.6491 21.25 14.7869 21.0237 15.8485 20.5839C16.9101 20.1442 17.8747 19.4997 18.6872 18.6872C19.4997 17.8747 20.1442 16.9101 20.5839 15.8485C21.0237 14.7869 21.25 13.6491 21.25 12.5C21.25 11.3509 21.0237 10.2131 20.5839 9.15152C20.1442 8.08992 19.4997 7.12533 18.6872 6.31282C17.8747 5.5003 16.9101 4.85578 15.8485 4.41605C14.7869 3.97633 13.6491 3.75 12.5 3.75C11.3509 3.75 10.2131 3.97633 9.15152 4.41605C8.08992 4.85578 7.12533 5.5003 6.31282 6.31282C5.5003 7.12533 4.85578 8.08992 4.41605 9.15152C3.97633 10.2131 3.75 11.3509 3.75 12.5Z" stroke="white" stroke-width="2" stroke-linecap="round" stroke-linejoin="round"/>
<path d="M12.5 7V18" stroke="white"/>
<path d="M18 12.5281L7.00014 12.472" stroke="white"/>
</svg>
