<svg width="24" height="24" viewBox="0 0 24 24" fill="none" xmlns="http://www.w3.org/2000/svg">
<path d="M10.74 2.44388C11.0963 2.15483 11.5412 1.99707 12 1.99707C12.4588 1.99707 12.9037 2.15483 13.26 2.44388L20.888 8.62388C21.2349 8.90476 21.5147 9.2595 21.707 9.66224C21.8994 10.065 21.9995 10.5056 22 10.9519V19.9999C22 20.5303 21.7893 21.039 21.4142 21.4141C21.0391 21.7892 20.5304 21.9999 20 21.9999H17C16.4696 21.9999 15.9609 21.7892 15.5858 21.4141C15.2107 21.039 15 20.5303 15 19.9999V14.9999C15 14.7347 14.8946 14.4803 14.7071 14.2928C14.5196 14.1052 14.2652 13.9999 14 13.9999H10C9.73478 13.9999 9.48043 14.1052 9.29289 14.2928C9.10536 14.4803 9 14.7347 9 14.9999V19.9999C9 20.5303 8.78929 21.039 8.41421 21.4141C8.03914 21.7892 7.53043 21.9999 7 21.9999H4C3.46957 21.9999 2.96086 21.7892 2.58579 21.4141C2.21071 21.039 2 20.5303 2 19.9999V10.9539C1.99991 10.5069 2.09971 10.0655 2.29211 9.66204C2.4845 9.25857 2.76462 8.90319 3.112 8.62188L10.74 2.44388Z" fill="white"/>
</svg>
